<?xml version="1.0" encoding="UTF-8" standalone="no"?>
<!-- Created with Inkscape (http://www.inkscape.org/) -->

<svg
   xmlns:dc="http://purl.org/dc/elements/1.1/"
   xmlns:cc="http://creativecommons.org/ns#"
   xmlns:rdf="http://www.w3.org/1999/02/22-rdf-syntax-ns#"
   xmlns:svg="http://www.w3.org/2000/svg"
   xmlns="http://www.w3.org/2000/svg"
   xmlns:sodipodi="http://sodipodi.sourceforge.net/DTD/sodipodi-0.dtd"
   xmlns:inkscape="http://www.inkscape.org/namespaces/inkscape"
   width="958.06"
   height="146.10358"
   viewBox="0 0 253.48672 38.656571"
   version="1.1"
   id="svg8"
   inkscape:version="0.92.4 (5da689c313, 2019-01-14)"
   sodipodi:docname="Sports Booking Sniper Logo.svg">
  <defs
     id="defs2" />
  <sodipodi:namedview
     id="base"
     pagecolor="#ffffff"
     bordercolor="#666666"
     borderopacity="1.0"
     inkscape:pageopacity="0.0"
     inkscape:pageshadow="2"
     inkscape:zoom="1"
     inkscape:cx="453.0872"
     inkscape:cy="41.547009"
     inkscape:document-units="mm"
     inkscape:current-layer="layer1"
     showgrid="true"
     inkscape:snap-to-guides="true"
     showguides="true"
     inkscape:guide-bbox="true"
     units="px"
     fit-margin-top="0"
     fit-margin-left="0"
     fit-margin-right="0"
     fit-margin-bottom="0"
     inkscape:window-width="2560"
     inkscape:window-height="1377"
     inkscape:window-x="1912"
     inkscape:window-y="-8"
     inkscape:window-maximized="1">
    <inkscape:grid
       type="xygrid"
       id="grid6438"
       originx="1e-05"
       originy="0.29198578" />
  </sodipodi:namedview>
  <metadata
     id="metadata5">
    <rdf:RDF>
      <cc:Work
         rdf:about="">
        <dc:format>image/svg+xml</dc:format>
        <dc:type
           rdf:resource="http://purl.org/dc/dcmitype/StillImage" />
        <dc:title></dc:title>
        <cc:license
           rdf:resource="http://creativecommons.org/licenses/by/4.0/" />
      </cc:Work>
      <cc:License
         rdf:about="http://creativecommons.org/licenses/by/4.0/">
        <cc:permits
           rdf:resource="http://creativecommons.org/ns#Reproduction" />
        <cc:permits
           rdf:resource="http://creativecommons.org/ns#Distribution" />
        <cc:requires
           rdf:resource="http://creativecommons.org/ns#Notice" />
        <cc:requires
           rdf:resource="http://creativecommons.org/ns#Attribution" />
        <cc:permits
           rdf:resource="http://creativecommons.org/ns#DerivativeWorks" />
      </cc:License>
    </rdf:RDF>
  </metadata>
  <g
     inkscape:label="Layer 1"
     inkscape:groupmode="layer"
     id="layer1"
     transform="translate(0,-258.63543)">
    <text
       xml:space="preserve"
       style="font-style:normal;font-weight:normal;font-size:20.03183365px;line-height:1.25;font-family:sans-serif;letter-spacing:0px;word-spacing:0px;fill:#000000;fill-opacity:1;stroke:none;stroke-width:0.50079584"
       x="-0.88194442"
       y="288.4632"
       id="text6442"><tspan
         sodipodi:role="line"
         id="tspan6440"
         x="-0.88194442"
         y="288.4632"
         style="font-style:normal;font-variant:normal;font-weight:bold;font-stretch:normal;font-size:28.22222137px;font-family:'Univers 45 Light';-inkscape-font-specification:'Univers 45 Light, Bold';font-variant-ligatures:normal;font-variant-caps:normal;font-variant-numeric:normal;font-feature-settings:normal;text-align:start;writing-mode:lr-tb;text-anchor:start;fill:#ff0000;stroke-width:0.50079584">SPORT</tspan></text>
    <g
       id="g5107"
       transform="matrix(1.4952023,0,0,1.4952023,-19.424915,221.30495)">
      <path
         style="fill:#00549f;fill-rule:evenodd;stroke-width:0.26458332"
         id="rwth"
         d="m 91.682314,37.279987 h -0.153988 -3.861858 v -1.359958 -10.621168 -0.08916 h 3.853656 0.0079 2.723356 c 1.785937,-2.65e-4 3.325812,1.1557 3.828256,2.688431 0.465667,1.419754 0.06773,2.963069 -0.982398,4.060825 0.1397,0.378619 0.275696,0.674158 0.405342,1.014148 0.291306,0.672042 0.558535,1.344083 0.849841,2.007923 l 0.955411,2.298964 h -0.02434 -4.04786 c 0,0.0019 -0.03254,-0.09737 -0.06482,-0.137583 -0.16166,-0.35613 -0.307446,-0.736865 -0.469371,-1.092994 l -0.979487,-2.323306 c -0.388409,-0.939271 -0.777082,-1.826419 -1.165755,-2.765689 0.485246,-0.01297 0.847725,0.07779 1.316038,-0.137054 0.328612,-0.16219 0.827352,-0.564357 0.840052,-1.335353 -0.0127,-0.382587 -0.118533,-0.672041 -0.37121,-0.972872 -0.253736,-0.27993 -0.620713,-0.487363 -1.09855,-0.494242 0,0 -1.561042,-7.94e-4 -1.559984,0 v 9.259093 z M 131.70583,25.211813 h -2.0947 v 4.355041 h -2.617 -0.1942 v -3.602037 -0.753004 h -2.89798 -10.20022 -2.81728 -0.33179 v 5.423958 c 0.0323,0.250825 0.0889,0.50165 0.11324,0.760942 l -1.08479,-2.469092 c -0.48577,-1.133475 -0.94721,-2.26695 -1.43298,-3.408363 -0.0405,-0.105304 -0.0693,-0.175947 -0.12171,-0.307445 h -4.1447 c 0,0.590814 0.008,1.246452 0,1.821391 v 3.602567 c 0.0405,0.226483 0.11351,0.525992 0.14605,0.760942 l -0.0243,-0.04868 c -0.89059,-2.032 -1.74863,-4.071937 -2.59847,-6.136216 h -4.13544 c 0.08096,0.242887 0.210344,0.461433 0.291571,0.70432 l 0.913341,2.139157 0.637382,1.497541 0.04048,0.09102 c 0.293158,0.698235 0.525198,1.245129 0.809625,1.916642 0.819941,1.938866 1.608931,3.810793 2.430731,5.721349 h 4.1447 v -6.314281 c 0.10503,0.35613 0.18626,0.720461 0.26722,1.084792 0.70433,1.732227 1.46553,3.48906 2.18573,5.229489 h 4.13676 v -4.897701 -4.379384 h 2.83289 v 4.079875 0.194204 5.003006 h 3.98357 0.0325 v -4.13676 -3.974835 -0.874183 -0.291307 h 2.80829 v 9.277085 h 1.77324 c 0.72866,-0.0079 1.51421,0 2.24261,0 V 32.36006 h 0.0325 2.40427 0.37438 v 4.921779 h 0.88027 3.13558 V 25.211813 Z"
         inkscape:connector-curvature="0" />
      <path
         style="fill:#8ebae5;fill-rule:evenodd;stroke-width:0.26458332"
         id="aachen"
         d="m 147.89807,25.271608 h -2.99535 l -2.50719,9.472613 -2.50772,-9.472613 h -2.99588 l -3.18029,12.016581 h 2.52465 l 0.5551,-2.541322 h 3.19775 l 0.55537,2.541322 h 3.70205 l 0.55509,-2.541322 h 3.19802 l 0.55536,2.541322 h 2.52439 z m -10.68599,7.489296 1.16152,-5.402262 h 0.0336 l 1.16099,5.402262 z m 8.01052,0 1.16152,-5.402262 h 0.0336 l 1.16072,5.402262 z m 10.65239,-3.433233 c 0,-1.750483 -0.35348,-2.507721 -1.44753,-2.507721 -1.22873,0 -1.51501,1.228725 -1.51501,4.628092 0,3.635375 0.50509,4.291541 1.54861,4.291541 0.87551,0 1.51447,-0.454289 1.51447,-3.046148 h 2.42385 c 0,2.591859 -0.63976,4.830233 -3.82005,4.830233 -3.63564,0 -4.08967,-2.591858 -4.08967,-6.243637 0,-3.652308 0.45403,-6.244166 4.08967,-6.244166 3.46683,0 3.71872,2.541323 3.71872,4.291806 z m 2.89322,-4.055798 h 2.42279 v 4.594225 h 2.82787 v -4.594225 h 2.42332 v 12.016316 h -2.42332 V 31.953131 H 161.191 v 5.335058 h -2.42279 z m 15.06141,-2.65e-4 v 1.985698 h -4.29154 v 2.827338 h 4.0386 v 1.986227 h -4.0386 v 3.231092 h 4.45981 v 1.985961 h -6.88393 V 25.271608 Z m 3.50149,0 2.92815,8.2296 h 0.0333 v -8.2296 h 2.22171 v 12.016316 h -2.7604 l -2.96121,-8.414807 h -0.0347 v 8.414807 h -2.22118 V 25.271608 Z"
         inkscape:connector-curvature="0" />
      <path
         style="fill:#8ebae5;fill-rule:evenodd;stroke-width:0.26458332"
         id="university"
         d="m 151.12493,40.157066 h 1.14485 c 1.09379,0 1.68249,0.555361 1.68249,1.665817 0,1.296458 -0.65591,1.801548 -1.81769,1.801548 h -1.00965 z m -2.42306,10.23276 h 2.42306 v -5.08291 h 1.29619 c 0.97579,0 1.39621,0.572029 1.4306,1.51421 l 0.0669,2.305844 c 0.0167,0.471488 0.0669,0.926042 0.30322,1.262856 h 2.62493 v -0.101335 c -0.45403,-0.235479 -0.52176,-0.89191 -0.53869,-2.154237 -0.0333,-2.541059 -0.28549,-3.449638 -1.93464,-3.669242 v -0.03334 c 1.36261,-0.286543 2.00237,-1.363398 2.00237,-2.962275 0,-2.052902 -1.21179,-3.096418 -3.19749,-3.096418 h -4.47675 V 50.389826 Z M 113.0453,38.372981 v 8.381206 c 0,3.214423 1.86849,3.871119 3.83725,3.871119 1.9693,0 3.83726,-0.808303 3.83726,-3.871119 v -8.381206 h -2.42359 v 8.381206 c 0,1.195123 -0.28601,2.087033 -1.41367,2.087033 -1.12765,0 -1.41367,-0.89191 -1.41367,-2.087033 v -8.381206 z m 8.19388,0 v 12.016845 h 2.22144 v -8.415337 h 0.0336 l 2.96227,8.415337 h 2.76013 V 38.372981 h -2.2217 v 8.2296 h -0.0336 l -2.92815,-8.2296 z m 11.02387,0 h -2.42332 v 12.016845 h 2.42332 z m 0.16642,0 2.76013,12.016845 h 3.11336 l 2.76066,-12.016845 h -2.50772 l -1.78488,8.886295 h -0.05 l -1.69942,-8.886295 z m 8.84925,0 v 12.016845 h 6.88393 v -1.986491 h -4.46061 v -3.231092 h 4.0394 v -1.985962 h -4.0394 v -2.827602 h 4.29234 v -1.985698 z m 15.29874,8.263202 v 0.488156 c 0,2.221971 1.07712,3.500967 3.82006,3.500967 2.62599,0 4.17353,-1.144853 4.17353,-3.685911 0,-1.464204 -0.47096,-2.389452 -2.28838,-3.181085 l -1.86849,-0.807244 c -1.02684,-0.43815 -1.24539,-0.892175 -1.24539,-1.632479 0,-0.706967 0.28654,-1.397 1.38033,-1.397 0.92551,0 1.31234,0.656696 1.31234,1.784085 h 2.32251 v -0.336814 c 0,-2.305844 -1.56448,-3.231092 -3.71978,-3.231092 -2.28785,0 -3.71872,1.195123 -3.71872,3.534304 0,2.002631 0.99272,2.894542 3.14669,3.634846 1.59888,0.55536 2.1545,0.959115 2.1545,2.053696 0,1.009121 -0.70696,1.480873 -1.44727,1.480873 -1.27899,0 -1.59887,-0.723636 -1.59887,-1.851819 v -0.353483 z m 10.73415,-8.263202 h -2.42385 v 12.016845 h 2.42385 z m 12.58728,0 -1.68248,4.645025 h -0.0336 l -1.58195,-4.645025 h -8.97149 v 1.985698 h 2.62573 v 10.031147 h 2.42305 V 40.358679 h 2.04444 l 2.26536,5.30172 v 4.729427 h 2.42358 v -4.729427 l 3.11335,-7.287418 z"
         inkscape:connector-curvature="0" />
    </g>
    <path
       d=""
       id="path1368"
       style="fill:#000000;stroke-width:0.26458332"
       inkscape:connector-curvature="0" />
    <path
       d=""
       id="path1366"
       style="fill:#000000;stroke-width:0.26458332"
       inkscape:connector-curvature="0" />
    <g
       id="g6460"
       transform="matrix(0.9447268,0,0,0.9447268,2.546449,15.353215)">
      <g
         transform="translate(-45.603588,84.127564)"
         id="g5690">
        <path
           d="m 110.63347,193.64207 a 18.95965,18.95965 0 1 1 -37.919298,0 18.95965,18.95965 0 1 1 37.919298,0 z"
           id="path13124"
           style="fill:none;stroke:#000000;stroke-width:2;stroke-linecap:butt;stroke-linejoin:miter;stroke-miterlimit:4;stroke-dasharray:none;stroke-dashoffset:0;stroke-opacity:1"
           inkscape:connector-curvature="0" />
        <path
           d="M 72.598843,193.64206 H 110.63099"
           id="path13126"
           style="fill:none;stroke:#000000;stroke-width:0.52916664;stroke-linecap:butt;stroke-linejoin:miter;stroke-miterlimit:4;stroke-dasharray:none;stroke-opacity:1"
           inkscape:connector-curvature="0" />
        <path
           d="M 91.968181,212.82084 V 174.7887"
           id="path13128"
           style="fill:none;stroke:#000000;stroke-width:0.52916664;stroke-linecap:butt;stroke-linejoin:miter;stroke-miterlimit:4;stroke-dasharray:none;stroke-opacity:1"
           inkscape:connector-curvature="0" />
        <path
           d="m 91.987681,212.83753 v -7.08974"
           id="path13130"
           style="fill:none;stroke:#000000;stroke-width:1.00872087;stroke-linecap:butt;stroke-linejoin:miter;stroke-miterlimit:4;stroke-dasharray:none;stroke-opacity:1"
           inkscape:connector-curvature="0" />
        <path
           d="M 92.003908,187.64961 V 174.69845"
           id="path13132"
           style="fill:none;stroke:#000000;stroke-width:1.05833328;stroke-linecap:butt;stroke-linejoin:miter;stroke-miterlimit:4;stroke-dasharray:none;stroke-opacity:1"
           inkscape:connector-curvature="0" />
        <path
           d="m 72.899002,193.66312 h 13.29469"
           id="path13134"
           style="fill:none;stroke:#000000;stroke-width:1.05833328;stroke-linecap:butt;stroke-linejoin:miter;stroke-miterlimit:4;stroke-dasharray:none;stroke-opacity:1"
           inkscape:connector-curvature="0" />
        <path
           d="M 98.004798,193.62941 H 110.42692"
           id="path13136"
           style="fill:none;stroke:#000000;stroke-width:1.04939055;stroke-linecap:butt;stroke-linejoin:miter;stroke-miterlimit:4;stroke-dasharray:none;stroke-opacity:1"
           inkscape:connector-curvature="0" />
        <path
           d="m 88.310849,203.97521 h 7.067309"
           id="path13140"
           style="fill:none;stroke:#000000;stroke-width:0.53733349;stroke-linecap:butt;stroke-linejoin:miter;stroke-miterlimit:4;stroke-dasharray:none;stroke-opacity:1"
           inkscape:connector-curvature="0" />
        <path
           d="m 89.517616,200.70475 h 4.861938"
           id="path13142"
           style="fill:none;stroke:#000000;stroke-width:0.48563173;stroke-linecap:butt;stroke-linejoin:miter;stroke-miterlimit:4;stroke-dasharray:none;stroke-opacity:1"
           inkscape:connector-curvature="0" />
        <path
           d="m 90.598275,198.03813 h 2.742247"
           id="path13144"
           style="fill:none;stroke:#000000;stroke-width:0.48215124;stroke-linecap:butt;stroke-linejoin:miter;stroke-miterlimit:4;stroke-dasharray:none;stroke-opacity:1"
           inkscape:connector-curvature="0" />
        <path
           d="m 91.158395,195.8402 h 1.622007"
           id="path13146"
           style="fill:none;stroke:#000000;stroke-width:0.37758312;stroke-linecap:butt;stroke-linejoin:miter;stroke-miterlimit:4;stroke-dasharray:none;stroke-opacity:1"
           inkscape:connector-curvature="0" />
      </g>
    </g>
    <path
       style="fill:#8ebae5;fill-opacity:1;stroke:#8ebae5;stroke-width:2.0507946;stroke-linecap:butt;stroke-linejoin:miter;stroke-miterlimit:4;stroke-dasharray:none;stroke-opacity:1"
       d="m 103.1875,258.63543 v 8.16558 30.49099"
       id="path5692"
       inkscape:connector-curvature="0"
       sodipodi:nodetypes="ccc" />
    <flowRoot
       xml:space="preserve"
       id="flowRoot5741"
       style="font-style:normal;font-weight:normal;font-size:40px;line-height:1.25;font-family:sans-serif;letter-spacing:0px;word-spacing:0px;fill:#000000;fill-opacity:1;stroke:none"
       transform="scale(0.26458333)"><flowRegion
         id="flowRegion5743"><rect
           id="rect5745"
           width="96"
           height="60"
           x="226"
           y="-18.980316" /></flowRegion><flowPara
         id="flowPara5747"></flowPara></flowRoot>    <flowRoot
       xml:space="preserve"
       id="flowRoot5749"
       style="font-style:normal;font-weight:normal;font-size:40px;line-height:1.25;font-family:sans-serif;letter-spacing:0px;word-spacing:0px;fill:#000000;fill-opacity:1;stroke:none"
       transform="scale(0.26458333)"><flowRegion
         id="flowRegion5751"><rect
           id="rect5753"
           width="183.5"
           height="106"
           x="156"
           y="-44.980316" /></flowRegion><flowPara
         id="flowPara5755"></flowPara></flowRoot>    <flowRoot
       xml:space="preserve"
       id="flowRoot5853"
       style="font-style:normal;font-weight:normal;font-size:40px;line-height:1.25;font-family:sans-serif;letter-spacing:0px;word-spacing:0px;fill:#000000;fill-opacity:1;stroke:none"
       transform="scale(0.26458333)"><flowRegion
         id="flowRegion5855"><rect
           id="rect5857"
           width="354"
           height="176"
           x="51.5"
           y="966.51971" /></flowRegion><flowPara
         id="flowPara5859"></flowPara></flowRoot>  </g>
</svg>
